# xmcd
#
# Track frame offsets: 
#        150
#        17281
#        34968
#        56929
#        73373
#        93475
#        106665
#        123906
#        140818
#        162020
#
# Disc length: 2397 seconds
#
# Revision: 1
# Processed by: cddbd v1.5.2PL0 Copyright (c) Steve Scherf et al.
# Submitted via: ExactAudioCopy v1.1
#
DISCID=88095b0a
DTITLE=Armatrading, Joan - Starlight
DYEAR=2012
DGENRE=Singer/Songwriter
TTITLE0=Single life
TTITLE1=Close to me
TTITLE2=Tell me
TTITLE3=Back on Track
TTITLE4=I want that love
TTITLE5=The way I think of you
TTITLE6=Always on my mind
TTITLE7=Starlight
TTITLE8=Busy with you
TTITLE9=Summer kisses
EXTD=
EXTT0=
EXTT1=
EXTT2=
EXTT3=
EXTT4=
EXTT5=
EXTT6=
EXTT7=
EXTT8=
EXTT9=
PLAYORDER=
